# xmcd CD database file
#
# Track frame offsets:
#	150
#	19357
#	33596
#	51913
#	67441
#	86510
#	102729
#	121776
#	139016
#	161600
#
# Disc length: 2391 seconds
#
# Revision: 0
# Processed by: cddbd v1.5.1PL2 Copyright (c) Steve Scherf et al.
# Submitted via: cdripper 1,0,33,916
#
DISCID=9109550a
DTITLE=Juice Newton - The Best of Juice Newton
DYEAR=1900
DGENRE=Country
TTITLE0=Angel Of The Morning
TTITLE1=Love's Been A Little Bit Hard On Me
TTITLE2=Break It To Me Gently
TTITLE3=Queen Of Hearts
TTITLE4=The Sweetest Thing
TTITLE5=This Old Flame
TTITLE6=Ride 'Em Cowboy
TTITLE7=When I Get Over You
TTITLE8=Red Blooded American Girl
TTITLE9=The Trouble With Angels
EXTD=
EXTT0=
EXTT1=
EXTT2=
EXTT3=
EXTT4=
EXTT5=
EXTT6=
EXTT7=
EXTT8=
EXTT9=
PLAYORDER=
